<svg viewBox="0 0 107 104" xmlns="http://www.w3.org/2000/svg" xmlns:xlink="http://www.w3.org/1999/xlink" width="107.000000" height="104.000000" fill="none">
	<rect id="LOGO" width="107.000000" height="104.000000" x="0.000000" y="0.000000" />
	<g id="组合 1">
		<path id="矢量 1" d="M60.2526 36.6537C58.3359 39.5103 55.6259 41.5503 52.1226 42.7737C49.7859 43.077 47.3259 43.2987 44.7426 43.4387C42.2159 43.5787 40.5126 43.8387 39.6326 44.2187C38.0326 44.912 36.7959 46.0787 35.9226 47.7187C36.0259 46.472 36.7042 45.4237 37.9576 44.5737C38.0942 44.4803 38.1326 44.3587 38.0726 44.2087C38.0126 44.0553 37.9009 43.992 37.7376 44.0187C35.6576 44.3687 33.9709 45.2103 32.6776 46.5437C31.1176 48.1503 29.8159 49.8237 28.7726 51.5637C28.6226 51.8103 28.5226 52.0753 28.4726 52.3587L27.0076 60.4337C27.0142 67.427 29.6092 72.4753 34.7926 75.5787C38.4126 77.7486 42.1359 78.567 45.9626 78.0337C51.4392 77.2737 55.9092 73.767 59.3726 67.5137C60.1159 66.1703 61.0242 63.7887 62.0976 60.3687C62.4042 59.3987 63.0959 57.7487 64.1726 55.4187C66.1926 51.042 69.3926 47.6303 73.7726 45.1837C77.8392 42.9137 82.6626 42.2637 88.2426 43.2337C89.5892 43.4703 91.3742 44.2237 93.5976 45.4937C97.3076 47.617 100.727 50.76 101.5 55L101.6 55.5L101.6 56.2137L101.6 57L101.5 58L101.35 59L101.219 59.8746C101.206 59.9581 101.196 60.0426 101.166 60.1218C101.112 60.2689 100.999 60.5146 100.881 60.7588C100.798 60.9316 100.711 61.1037 100.641 61.2395C100.557 61.4021 100.387 61.4918 100.204 61.4787L100.204 61.4787C100.06 61.4729 99.9334 61.3927 99.8753 61.261C99.1875 59.705 98.0566 58.5176 96.4826 57.6987C96.6459 56.0553 96.2292 54.582 95.2326 53.2787C95.4759 53.3587 95.6542 53.347 95.7676 53.2437C95.8876 53.127 95.8692 52.972 95.7126 52.7787C91.3592 47.3153 85.5659 45.4987 78.3326 47.3287C76.3792 47.642 74.5759 48.4703 72.9226 49.8137C70.7259 51.6037 69.0392 53.737 67.8626 56.2137C66.3126 59.0937 65.0942 62.0603 64.2076 65.1136C64.1209 65.417 64.2359 65.562 64.5526 65.5487L64.5726 65.5487C64.8892 65.5353 65.1159 65.3853 65.2526 65.0986C67.7059 59.9687 71.2526 56.5403 75.8926 54.8137C75.5192 56.0537 74.8742 57.8203 73.9576 60.1137C73.3142 61.7137 73.1142 63.4137 73.3576 65.2137C73.2876 67.0903 72.9909 68.5536 72.4676 69.6037C71.7642 71.0103 71.0742 72.567 70.3976 74.2737C69.8042 74.947 69.2092 75.722 68.6126 76.5986C63.8126 83.6487 56.9359 87.1187 47.9826 87.0087C43.9292 86.962 39.6592 85.7086 35.1726 83.2486C34.1359 82.6786 32.6326 81.4687 30.6626 79.6187C29.5759 78.5986 28.7559 77.8636 28.2026 77.4137C27.3559 76.7236 26.5226 75.6436 25.7026 74.1737C24.8459 72.6403 23.9359 70.5587 22.9726 67.9286C22.1859 65.7887 21.8109 63.897 21.8476 62.2537C21.8876 60.287 21.8809 58.3387 21.8276 56.4087C23.2009 51.6853 25.7009 47.8403 29.3276 44.8737C31.5676 43.0437 34.1959 41.8253 37.2126 41.2187C39.0692 40.8453 42.0576 40.612 46.1776 40.5187C46.9709 40.4987 47.5709 40.4837 47.9776 40.4737C51.9742 40.3603 54.5842 39.487 55.8076 37.8537C56.1009 37.4603 56.0026 37.2637 55.5126 37.2637C55.5092 37.2637 55.5059 37.2637 55.5026 37.2637C52.5159 37.257 50.2892 37.1153 48.8226 36.8387C46.0192 36.3153 43.2876 35.5687 40.6276 34.5987C36.9742 33.0953 33.1542 32.4653 29.1676 32.7087C26.7709 32.852 24.4959 33.4353 22.3426 34.4587C20.2392 35.4553 18.2409 36.7187 16.3476 38.2487C15.9309 38.5853 15.8209 38.9187 16.0176 39.2487C15.8842 39.3953 15.8092 39.497 15.7926 39.5537C15.7559 39.697 15.7959 39.812 15.9126 39.8987C16.0292 39.9853 16.1509 39.9903 16.2776 39.9137C19.4809 37.9337 22.9642 37.1087 26.7276 37.4387C25.5642 37.972 24.4892 38.4953 23.5026 39.0087C20.2092 40.7253 17.1809 43.5853 14.4176 47.5887C13.6542 48.6953 13.0726 49.737 12.6726 50.7137C11.9592 52.467 11.4126 54.292 11.0326 56.1887L10.2876 59.5987C10.2409 59.8387 10.2776 60.082 10.2876 60.3287C10.4576 63.9253 10.9709 67.5937 11.8276 71.3336C8.98091 66.5003 7.14424 60.712 6.31758 53.9687C5.88758 50.4687 5.89424 47.0787 6.33758 43.7987C7.12424 37.9453 8.54758 32.9303 10.6076 28.7537C15.8409 18.147 23.7092 10.252 34.2126 5.06865C34.5092 4.92199 34.6242 5.01032 34.5576 5.33365C34.1009 7.59699 33.9326 9.99365 34.0526 12.5237C34.1226 13.9903 34.3959 15.072 34.8726 15.7687C35.4026 16.542 36.3526 17.132 37.7226 17.5387C40.5959 18.392 43.1476 19.7037 45.3776 21.4737C46.5342 22.3937 47.6959 24.1637 48.8626 26.7837C49.7359 28.737 51.1326 30.382 53.0526 31.7187C54.2292 32.5387 56.2576 33.5953 59.1376 34.8887C59.4742 35.042 59.7276 35.157 59.8976 35.2337C60.0642 35.307 60.1826 35.4287 60.2526 35.5987C60.3892 35.9253 60.3892 36.277 60.2526 36.6537ZM39.4276 28.9287C40.6409 29.552 42.0026 29.8037 43.5126 29.6837C43.9092 29.6537 44.0126 29.4653 43.8226 29.1187C42.9959 27.6153 42.0292 26.5803 40.9226 26.0137C39.8159 25.447 38.4109 25.267 36.7076 25.4737C36.3142 25.5237 36.2209 25.717 36.4276 26.0537C37.2142 27.3503 38.2142 28.3087 39.4276 28.9287Z" fill="rgb(58,127,237)" fill-rule="nonzero" />
		<path id="矢量 1" d="M43.5126 29.6837C42.0026 29.8037 40.6409 29.552 39.4276 28.9287C38.2142 28.3087 37.2142 27.3503 36.4276 26.0537C36.2209 25.717 36.3142 25.5237 36.7076 25.4737C38.4109 25.267 39.8159 25.447 40.9226 26.0137C42.0292 26.5803 42.9959 27.6153 43.8226 29.1187C44.0126 29.4653 43.9092 29.6537 43.5126 29.6837Z" fill="rgb(58,127,237)" fill-rule="evenodd" />
		<path id="矢量 1" d="M43.5126 29.6837C42.0026 29.8037 40.6409 29.552 39.4276 28.9287C38.2142 28.3087 37.2142 27.3503 36.4276 26.0537C36.2209 25.717 36.3142 25.5237 36.7076 25.4737C38.4109 25.267 39.8159 25.447 40.9226 26.0137C42.0292 26.5803 42.9959 27.6153 43.8226 29.1187C44.0126 29.4653 43.9092 29.6537 43.5126 29.6837Z" fill="rgb(255,255,255)" fill-rule="evenodd" />
		<path id="矢量 2" d="M43.9926 17.6137C43.9892 17.8503 43.8842 17.9103 43.6776 17.7937C42.0676 16.8703 40.2576 16.102 38.2476 15.4887C36.3942 14.922 36.0859 14.0903 37.3226 12.9937C39.5892 10.997 42.1459 9.30365 44.9926 7.91365C45.3092 7.76032 45.4192 7.85365 45.3226 8.19365C44.4926 11.157 44.0492 14.297 43.9926 17.6137Z" fill="rgb(52,114,234)" fill-rule="nonzero" />
		<path id="矢量 3" d="M40.6276 34.5987C39.5442 34.4253 38.4659 34.2137 37.3926 33.9637C28.9759 32.017 21.8509 33.7787 16.0176 39.2487C15.8209 38.9187 15.9309 38.5853 16.3476 38.2487C18.2409 36.7187 20.2392 35.4553 22.3426 34.4587C24.4959 33.4353 26.7709 32.852 29.1676 32.7087C33.1542 32.4653 36.9742 33.0953 40.6276 34.5987Z" fill="rgb(172,199,241)" fill-rule="nonzero" />
		<path id="矢量 4" d="M60.2526 36.6537C58.8659 40.017 56.1559 42.057 52.1226 42.7737C55.6259 41.5503 58.3359 39.5103 60.2526 36.6537Z" fill="rgb(172,199,241)" fill-rule="nonzero" />
		<path id="矢量 5" d="M11.0326 57.8021L11.0626 57.7337L10.9376 58.0187C10.7476 57.5153 10.7792 56.9053 11.0326 56.1887C11.4126 54.292 11.9592 52.467 12.6726 50.7137C13.0726 49.737 13.6542 48.6953 14.4176 47.5887C17.1809 43.5853 20.2092 40.7253 23.5026 39.0087C24.4892 38.4953 25.5642 37.972 26.7276 37.4387L27.0926 37.5437C27.2126 37.5803 27.2726 37.6603 27.2726 37.7837C27.2759 37.907 27.2176 37.9887 27.0976 38.0287C23.1609 39.332 19.9292 41.4653 17.4026 44.4287C16.9292 44.9853 16.1592 45.9703 15.0926 47.3837C13.5092 49.477 12.51 51.7033 12 54.5C11.8883 55.115 11.6085 56.0237 11.5 56.5C11.3915 56.9763 11.1142 57.5737 11.0326 57.8021Z" fill="rgb(202,214,202)" fill-opacity="0.995999992" fill-rule="nonzero" />
		<path id="矢量 6" d="M35.9226 47.7187C35.3359 50.622 36.0759 53.047 38.1426 54.9936L28.1076 62.1837C27.8742 60.9437 27.5076 60.3603 27.0076 60.4337L28.4726 52.3587C28.5226 52.0753 28.6226 51.8103 28.7726 51.5636C29.8159 49.8237 31.1176 48.1503 32.6776 46.5436C33.9709 45.2103 35.6576 44.3686 37.7376 44.0187C37.9009 43.992 38.0126 44.0553 38.0726 44.2086C38.1326 44.3587 38.0942 44.4803 37.9576 44.5737C36.7042 45.4236 36.0259 46.472 35.9226 47.7187Z" fill="rgb(32,67,227)" fill-rule="nonzero" />
		<path id="矢量 7" d="M78.3326 47.3287C73.9959 49.082 70.5059 52.0437 67.8626 56.2137C69.0392 53.737 70.7259 51.6037 72.9226 49.8137C74.5759 48.4703 76.3792 47.642 78.3326 47.3287Z" fill="rgb(202,214,202)" fill-opacity="0.995999992" fill-rule="nonzero" />
		<path id="矢量 8" d="M93.2526 52.3186C90.0459 52.7753 87.7026 53.8336 86.2226 55.4936C84.6292 57.2836 83.6059 59.3636 83.1526 61.7337C82.9592 62.7303 83.7433 64.45 83.5 65.5C83.2698 64.9575 82.7483 67.8606 82.6176 68C82.5306 68.0927 82.9609 69.2683 82.4976 69.5C82.2876 69.6067 83.155 75.25 80.5 77L76 82L78.5676 65C78.2133 64.5047 78.3635 68.5974 77.8859 68.5138C77.4378 68.4354 76 68.5 76 69C76.6098 68.9596 76.5 67.5 76.5 65.5C76.422 65.3917 76.4827 63.0908 76.5 63C76.5173 62.9092 76.4911 63.0349 76.5 63C77.5933 58.7567 79.0776 55.4403 82.6176 53.1236C85.9676 50.9336 89.5126 50.6653 93.2526 52.3186Z" fill="rgb(172,199,241)" fill-rule="nonzero" />
		<path id="矢量 9" d="M95.2326 53.2787C96.2292 54.582 96.6459 56.0553 96.4826 57.6987C95.2959 57.1153 93.9892 56.8437 92.5626 56.8837C91.3759 56.7803 90.3276 57.1137 89.4176 57.8837C88.1476 58.9537 87.3542 60.4303 87.0376 62.3137C86.9542 62.817 86.8276 63.537 86.6576 64.4737C86.2676 66.6437 85.9926 68.3853 85.8326 69.6987C85.4259 73.032 84.3009 76.2237 82.4576 79.2737C80.7676 82.0603 79.2826 84.062 78.0026 85.2787C69.2526 93.592 58.8242 96.737 46.7176 94.7137C46.5709 94.687 46.4309 94.6437 46.2976 94.5837C45.7526 94.3303 45.2126 94.3517 44.6776 94.24C44.1426 94.1283 43.6126 93.8837 43.0876 93.9137C40.2376 93.0103 37.5142 91.7253 34.9176 90.0587C29.6242 86.652 25.5826 81.567 22.7926 74.8037C20.2626 68.667 19.9409 62.5353 21.8276 56.4087C21.8809 58.3387 21.8876 60.287 21.8476 62.2537C21.8109 63.897 22.1859 65.7887 22.9726 67.9287C23.9359 70.5587 24.8459 72.6403 25.7026 74.1737C26.5226 75.6437 27.3559 76.7237 28.2026 77.4137C28.7559 77.8637 29.5759 78.5987 30.6626 79.6187C32.6326 81.4687 34.1359 82.6787 35.1726 83.2487C39.6592 85.7087 43.9292 86.962 47.9826 87.0087C56.9359 87.1187 63.8126 83.6487 68.6126 76.5987C69.2092 75.722 69.8042 74.947 70.3976 74.2737C72.7176 72.667 74.5709 70.6903 75.9576 68.3437C76.8309 66.867 77.7009 65.2987 78.5676 63.6387L79.7226 66.7337C80.1592 70.037 79.6776 73.3187 78.2776 76.5787C77.7642 77.7787 77.2092 79.0337 76.6126 80.3437C76.5192 80.5503 76.4726 80.742 76.4726 80.9187C76.4726 81.2787 76.5876 81.3203 76.8176 81.0437C79.8509 77.387 81.6326 73.207 82.1626 68.5037C82.1747 68.3909 82.1834 68.2786 82.1889 68.1667C82.2218 67.4931 82.2735 66.774 82.356 66.1048C82.4205 65.582 82.4666 65.0274 82.5 64.8543C82.5625 64.531 82.5633 65.211 82.5 64.8543C82.4367 64.6643 82.5027 65.0633 82.5 65C82.4986 64.9683 82.5 64.8543 82.5 64.8543C82.5 64.8543 82.4717 64.772 82.5 64.8037C82.7433 63.7537 82.9592 62.7303 83.1526 61.7337C83.6059 59.3637 84.6292 57.2837 86.2226 55.4937C87.7026 53.8337 90.0459 52.7753 93.2526 52.3187C93.6959 52.3587 94.3559 52.6787 95.2326 53.2787Z" fill="rgb(32,67,227)" fill-rule="nonzero" />
		<path id="矢量 10" d="M73.3576 65.2136C73.1143 63.4136 73.3142 61.7136 73.9576 60.1137C74.8742 57.8203 75.5192 56.0536 75.8926 54.8136L76.1576 54.7936C76.4142 54.777 76.4909 54.887 76.3876 55.1236C74.9876 58.3536 73.9776 61.717 73.3576 65.2136Z" fill="rgb(172,199,241)" fill-rule="nonzero" />
		<path id="矢量 11" d="M28.1076 62.1837L38.1426 54.9936C39.2492 56.0003 41.1026 57.127 43.7026 58.3736C44.2226 58.6236 44.6276 58.8186 44.9176 58.9586C48.7809 60.8353 51.6459 63.632 53.5126 67.3486C54.1426 68.6087 53.9459 69.7503 52.9226 70.7737C50.3126 73.3803 47.2909 74.7503 43.8576 74.8837C40.5376 75.0103 37.3659 73.9753 34.3426 71.7786C31.1959 69.4953 29.1176 66.297 28.1076 62.1837Z" fill="rgb(52,114,234)" fill-rule="nonzero" />
		<path id="矢量 13" d="M11.0326 56.1886C10.7792 56.9053 10.7476 57.5153 10.9376 58.0187C10.9776 57.9753 10.9375 57.8167 10.9375 58C10.7942 58.6667 10.89 59.6133 11 60C11.1767 60.63 11.1776 61.23 11.8275 62C12.5776 62.8867 13.0933 63.3733 14.5 63C14.7433 62.9367 15.4233 62.4653 15.5 62.2286C15.5 62.2286 16.7052 59.7673 16.8526 59.3836C17 59 17.9233 56.7236 17.5 60.4036C17.0767 64.0836 17.1526 67.682 18.0626 71.1986C18.2792 72.0453 18.8109 73.5737 19.6576 75.7837C19.8209 76.2137 19.9392 76.5253 20.0126 76.7187C21.7526 81.3453 24.9209 85.5487 29.5176 89.3287C29.6576 89.4453 29.6476 89.5503 29.4876 89.6436L29.3626 89.7136C29.3259 89.737 29.2892 89.737 29.2526 89.7136C26.9326 88.257 24.7526 86.607 22.7126 84.7636C18.3026 80.787 14.6742 76.3103 11.8276 71.3336C10.9709 67.5937 10.17 64.0967 10 60.5C9.99501 60.3766 9.87949 59.6896 9.99999 59C10.1203 58.3113 10.4767 57.6199 10.5 57.5L11.0326 56.1886Z" fill="rgb(172,199,241)" fill-rule="nonzero" />
		<path id="矢量 14" d="M92.5626 56.8836C90.5259 57.2336 89.0359 58.3536 88.0926 60.2436C87.8926 60.6437 87.6509 61.6053 87.3676 63.1286C86.9909 65.152 86.6409 67.2137 86.3176 69.3137C85.8942 72.077 85.3976 74.1003 84.8276 75.3837C82.9509 79.6237 81.0326 82.7453 79.0726 84.7486C72.8593 91.0987 65.7442 94.6603 57.7276 95.4337C52.1943 95.967 47.3143 95.4603 43.0876 93.9137C43.6126 93.8837 44.1426 94.0883 44.6776 94.2C44.9451 94.2558 45.2138 94.2884 45.4838 94.3387C45.6188 94.3638 45.7541 94.3934 45.8898 94.4325C46.0254 94.4716 46.1613 94.5203 46.2976 94.5836C46.4309 94.6437 46.5709 94.687 46.7176 94.7137C58.8242 96.737 69.2526 93.592 78.0026 85.2786C79.2826 84.062 80.7676 82.0603 82.4576 79.2737C84.3009 76.2236 85.4259 73.032 85.8326 69.6986C85.9926 68.3853 86.2676 66.6437 86.6576 64.4736C86.8276 63.537 86.9543 62.817 87.0376 62.3136C87.3542 60.4303 88.1476 58.9536 89.4176 57.8836C90.3276 57.1136 91.3759 56.7803 92.5626 56.8836Z" fill="rgb(202,214,202)" fill-opacity="0.995999992" fill-rule="nonzero" />
		<path id="矢量 15" />
	</g>
</svg>
